# xmcd
#
# Track frame offsets:
#	150
#	55154
#	94355
#	139841
#	193971
#	227623
#	262282
#	293284
#
# Disc length: 4398 seconds
#
# Revision: 1
# Processed by: cddbd v1.5.2PL0 Copyright (c) Steve Scherf et al.
# Submitted via: audiograbber 1.83.01
#
DISCID=77112c08
DTITLE=Grateful Dead - 79-12-10 Soldiers and Sailors Memorial Hall, Kansas City K
DTITLE=S
DYEAR=1900
DGENRE=
TTITLE0=Shakedown Street
TTITLE1=Samson and Delilah
TTITLE2=Ship Of Fools
TTITLE3=Terrapin Station
TTITLE4=Lost Sailor
TTITLE5=Saint Of Circumstance
TTITLE6=Estimated Prophet Jam
TTITLE7=Drums
EXTD=
EXTT0=
EXTT1=
EXTT2=
EXTT3=
EXTT4=
EXTT5=
EXTT6=
EXTT7=
PLAYORDER=
